<svg xmlns="http://www.w3.org/2000/svg" viewBox="0 0 34.2 34.2"><defs><style>.cls-1{fill:#0089ff;}</style></defs><title>arrows laft_1</title><g id="Layer_2" data-name="Layer 2"><g id="Layer_1-2" data-name="Layer 1"><path class="cls-1" d="M17.1,0A17.1,17.1,0,1,1,0,17.1,17.12,17.12,0,0,1,17.1,0Zm0,32.7A15.6,15.6,0,1,0,1.5,17.1,15.61,15.61,0,0,0,17.1,32.7Z"/><path class="cls-1" d="M11.92,16.82a.89.89,0,0,1,.16-.25l3.16-3.15a.74.74,0,0,1,1.06,0,.75.75,0,0,1,0,1.06l-1.87,1.87h7.16a.75.75,0,0,1,0,1.5H14.43l1.87,1.88a.75.75,0,0,1,0,1.06.75.75,0,0,1-1.06,0l-3.16-3.16a1,1,0,0,1-.16-.24A.8.8,0,0,1,11.92,16.82Z"/></g></g></svg>