<svg xmlns="http://www.w3.org/2000/svg" xmlns:xlink="http://www.w3.org/1999/xlink" width="131" height="22" viewBox="0 0 131 22"><defs><path id="uzv9a" d="M255.312 19.219C261.215 19.219 266 24.046 266 30c0 5.954-4.785 10.781-10.688 10.781-5.902 0-10.687-4.827-10.687-10.781 0-5.954 4.785-10.781 10.687-10.781zM164.86 37.835c0 .97-.286 1.703-.857 2.198a2.97 2.97 0 0 1-2.008.742c-.788 0-1.463-.247-2.024-.742-.561-.495-.842-1.228-.842-2.198V22.132c0-.929.28-1.646.842-2.152.561-.505 1.236-.758 2.024-.758.768 0 1.437.253 2.008.758.571.506.857 1.223.857 2.152zm77.564 0c0 .97-.285 1.703-.856 2.198a2.97 2.97 0 0 1-2.01.742c-.787 0-1.461-.247-2.023-.742-.56-.495-.842-1.228-.842-2.198V22.132c0-.929.281-1.646.842-2.152.562-.505 1.236-.758 2.024-.758.768 0 1.437.253 2.009.758.57.506.856 1.223.856 2.152zm-104.692-4.191c-5.469-9.552-2.734-14.328 8.202-14.328s13.67 4.776 8.202 14.328c-5.468 9.551-10.936 9.551-16.404 0zm70.455-7.232c5.454 9.58 2.727 14.369-8.182 14.369-10.908 0-13.636-4.79-8.181-14.369 5.454-9.58 10.909-9.58 16.363 0zm19.178 11.84c-9.502 5.5-14.253 2.75-14.253-8.25 0-11.002 4.75-13.752 14.253-8.252 9.501 5.5 9.501 11.002 0 16.502zm-57.682-4.608c-5.468-9.552-2.734-14.328 8.202-14.328s13.67 4.776 8.202 14.328c-5.468 9.551-10.936 9.551-16.404 0z"/></defs><g><g transform="translate(-135 -19)"><use fill="#ffffff" xlink:href="#uzv9a"/></g></g></svg>