<svg xmlns="http://www.w3.org/2000/svg" xmlns:xlink="http://www.w3.org/1999/xlink" width="18" height="11" viewBox="0 0 18 11"><defs><path id="orp4a" d="M1115.796 188.47a90.515 90.515 0 0 1-1.204 1.987c-.4.594-.613.902-.635.925-.134.205-.2.365-.2.48 0 .114.066.25.2.41l.3.343c1.606 1.69 2.51 2.855 2.71 3.494.067.274.039.486-.084.634-.122.149-.317.223-.585.223h-1.973c-.246 0-.468-.08-.669-.24-.134-.091-.374-.337-.72-.737-.345-.399-.651-.736-.919-1.01-.892-.868-1.55-1.302-1.973-1.302-.179 0-.307.034-.385.103-.078.068-.117.217-.117.445-.022.16-.033.514-.033 1.062v.89c.022.275-.045.47-.2.583-.201.137-.603.206-1.205.206-1.048 0-2.107-.32-3.177-.96-1.07-.639-2.006-1.552-2.81-2.74a20.652 20.652 0 0 1-1.905-3.186 20.762 20.762 0 0 1-.97-2.296c-.157-.57-.234-.97-.234-1.199 0-.388.222-.582.669-.582h1.973c.245 0 .429.057.551.171.123.115.229.32.318.617.312.914.691 1.804 1.137 2.672.402.8.803 1.45 1.204 1.953.402.503.714.754.937.754.133 0 .228-.052.284-.155.055-.102.084-.302.084-.6v-2.98a2.524 2.524 0 0 0-.235-.959 2.308 2.308 0 0 0-.334-.53c-.156-.195-.234-.355-.234-.48 0-.126.05-.234.15-.326a.507.507 0 0 1 .352-.137h3.11c.2 0 .34.057.418.171.078.115.117.309.117.583v3.974c0 .205.033.354.1.445a.3.3 0 0 0 .251.137c.1 0 .217-.04.351-.12.134-.08.312-.245.535-.497.424-.48.847-1.073 1.271-1.781a18.5 18.5 0 0 0 .836-1.644l.335-.686c.156-.388.435-.582.836-.582h1.973c.535 0 .736.252.602.754-.067.342-.334.913-.803 1.713z"/></defs><g><g transform="translate(-1099 -186)"><use fill="#fff" xlink:href="#orp4a"/></g></g></svg>